<?xml version="1.0" encoding="UTF-8"?>
<svg version="1.1" xmlns="http://www.w3.org/2000/svg" width="622" height="401">
<path d="M0 0 C7.54734201 6.86549491 13.5601573 13.58018992 14.84765625 24.04296875 C15.1836454 33.67913769 12.60359762 40.86425553 6.46484375 48.26953125 C0.09374804 54.81866157 -7.32711867 57.319115 -16.3671875 57.59375 C-26.29752228 57.33501919 -31.31367505 54.71952699 -38.75634766 48.12768555 C-48.24056873 39.93458109 -58.98690544 36.86635515 -71.3359375 37.00390625 C-83.28118814 38.0535508 -93.19318475 44.97620094 -100.765625 53.90625 C-108.2217385 64.16262332 -108.97289045 76.78573291 -107.06640625 89.01171875 C-106.39843826 91.26150052 -105.57112865 93.19684397 -104.4921875 95.28125 C-104.03972656 96.17199219 -103.58726562 97.06273437 -103.12109375 97.98046875 C-97.62343415 107.64422052 -89.26116384 114.26285698 -78.63671875 117.65234375 C-66.24485584 120.13071633 -55.04242479 118.81912611 -44.296875 111.859375 C-42.29586946 110.39981802 -40.39189123 108.87009312 -38.4921875 107.28125 C-36.95736612 106.02285442 -35.41550838 104.77299819 -33.8671875 103.53125 C-32.82691406 102.67273438 -32.82691406 102.67273438 -31.765625 101.796875 C-24.99687984 97.28437823 -17.32197169 97.59064059 -9.4921875 98.28125 C-1.88369249 100.0932867 4.56774779 103.92588818 8.9765625 110.45703125 C13.92731131 119.02009969 15.84867515 126.80898816 14.078125 136.67578125 C9.98313414 151.10936014 -4.37716592 161.04870024 -16.85180664 168.07202148 C-25.10538834 172.49395296 -33.4701319 175.77453584 -42.4921875 178.28125 C-43.31332031 178.51457031 -44.13445312 178.74789062 -44.98046875 178.98828125 C-71.06457758 185.25026938 -97.55340976 179.12163389 -120.4921875 166.28125 C-121.48992187 165.72566406 -122.48765625 165.17007813 -123.515625 164.59765625 C-144.04728381 152.33160794 -159.83214849 130.87980068 -166.56640625 108.0078125 C-173.08276615 81.77740177 -172.21212323 55.59241302 -159.4921875 31.28125 C-158.92242187 30.19199219 -158.35265625 29.10273438 -157.765625 27.98046875 C-144.04340881 3.32434058 -121.75374766 -13.51600247 -95.04296875 -21.75390625 C-61.4630511 -30.87848233 -26.31502336 -22.40229394 0 0 Z " fill="#7FC731" transform="translate(390.4921875,134.71875)"/>
<path d="M0 0 C7.33058112 4.72894351 12.13248483 12.51129467 14 21 C14.90434629 31.31923717 13.06190571 39.47240931 6.421875 47.53125 C1.13704017 52.91837196 -4.86015088 57.62268143 -11 62 C-11.56025879 62.40387939 -12.12051758 62.80775879 -12.69775391 63.22387695 C-17.56070214 66.38810479 -21.7641534 66.66282026 -27.375 66.5625 C-28.68730591 66.54606445 -28.68730591 66.54606445 -30.02612305 66.52929688 C-51.37256329 65.83353241 -72.50337439 54.49543507 -87.09375 39.1875 C-93.29680129 32.06924442 -99.27977232 24.17147802 -102 15 C-101.6875 12.88671875 -101.6875 12.88671875 -101 11 C-100.649375 9.9275 -100.29875 8.855 -99.9375 7.75 C-99.628125 6.8425 -99.31875 5.935 -99 5 C-95.5208868 6.27121444 -92.73911085 7.76209155 -89.75 9.9375 C-80.24698263 16.28837272 -70.24774122 17.41531407 -59 16 C-51.25424643 13.96804222 -45.08196172 10.08673162 -39 5 C-37.46517862 3.74160442 -35.92332088 2.49174819 -34.375 1.25 C-33.33472656 0.39148438 -33.33472656 0.39148438 -32.2734375 -0.484375 C-22.85929845 -6.7604677 -9.47490135 -5.45061529 0 0 Z " fill="#8ED32C" transform="translate(391,237)"/>
<path d="M0 0 C1.02577148 0.00676758 1.02577148 0.00676758 2.07226562 0.01367188 C3.73571604 0.0253044 5.3991205 0.04323306 7.0625 0.0625 C7.0625 0.3925 7.0625 0.7225 7.0625 1.0625 C6.4547876 1.12195801 5.8470752 1.18141602 5.22094727 1.24267578 C-18.93938498 3.71400674 -37.42838335 9.70150023 -55.9375 26.0625 C-56.57300781 26.61421875 -57.20851562 27.1659375 -57.86328125 27.734375 C-66.77174655 36.00798415 -72.98966674 47.09746305 -77.9375 58.0625 C-78.25460938 58.71089844 -78.57171875 59.35929687 -78.8984375 60.02734375 C-81.92540769 66.87548918 -82.17750651 74.69503366 -82.9375 82.0625 C-91.49187811 73.50812189 -91.11428331 52.12699518 -91.12792969 40.82324219 C-91.08305568 36.14268803 -90.7080597 31.67969374 -89.9375 27.0625 C-89.6075 27.0625 -89.2775 27.0625 -88.9375 27.0625 C-88.94273682 27.65039307 -88.94797363 28.23828613 -88.95336914 28.84399414 C-89.04419088 40.63357607 -88.96248022 52.31183388 -87.9375 64.0625 C-87.2775 64.0625 -86.6175 64.0625 -85.9375 64.0625 C-85.85242188 63.22847656 -85.76734375 62.39445312 -85.6796875 61.53515625 C-84.7882657 57.36424058 -83.1302612 54.19454824 -81.0625 50.5 C-80.71058594 49.85353516 -80.35867187 49.20707031 -79.99609375 48.54101562 C-78.99172359 46.7058932 -77.96705231 44.88357874 -76.9375 43.0625 C-76.39867187 42.08410156 -75.85984375 41.10570312 -75.3046875 40.09765625 C-74.85351562 39.42605469 -74.40234375 38.75445312 -73.9375 38.0625 C-73.2775 38.0625 -72.6175 38.0625 -71.9375 38.0625 C-71.68355469 37.49660156 -71.42960937 36.93070313 -71.16796875 36.34765625 C-61.17230873 17.78428764 -38.32722764 8.05644836 -19.35546875 2.26171875 C-12.88000979 0.41524713 -6.72662434 -0.05952765 0 0 Z " fill="#7AB767" transform="translate(310.9375,168.9375)"/>
<path d="M0 0 C3.21277529 4.07211945 5.63712478 8.52117607 8.18359375 13.02734375 C11.21422366 17.98714883 14.85953219 21.95154258 19 26 C19.58007812 26.64839844 20.16015625 27.29679687 20.7578125 27.96484375 C27.512635 35.27186657 35.45040462 40.07922281 44 45 C44.92296875 45.54011719 45.8459375 46.08023438 46.796875 46.63671875 C52.45648 49.71620971 58.09230163 51.12257312 64.41015625 52.32421875 C65.26480469 52.54722656 66.11945313 52.77023437 67 53 C67.33 53.66 67.66 54.32 68 55 C49.04404705 54.90886561 29.00624584 43.19307277 15.91015625 30.109375 C8.78857772 22.65824525 1.8791151 14.0603562 -1 4 C-0.6171875 1.6875 -0.6171875 1.6875 0 0 Z " fill="#97D162" transform="translate(290,248)"/>
<path d="M0 0 C0.33 0 0.66 0 1 0 C1.350625 1.258125 1.70125 2.51625 2.0625 3.8125 C3.39044978 7.97297322 5.33135488 11.02609241 7.875 14.5625 C11.04240353 19.28372413 11.04240353 19.28372413 10.85546875 22.44140625 C9.78509213 25.38889655 8.88368661 27.55815669 6 29 C5.18167278 27.10667466 4.37057732 25.21022267 3.5625 23.3125 C3.11003906 22.25675781 2.65757812 21.20101562 2.19140625 20.11328125 C0.30129265 15.17419752 -0.12046175 10.96201937 -0.0625 5.6875 C-0.05347656 4.61886719 -0.04445313 3.55023438 -0.03515625 2.44921875 C-0.02355469 1.64097656 -0.01195312 0.83273438 0 0 Z " fill="#93CE5D" transform="translate(282,221)"/>
<path d="M0 0 C1.02577148 0.00676758 1.02577148 0.00676758 2.07226562 0.01367188 C3.73571604 0.0253044 5.3991205 0.04323306 7.0625 0.0625 C7.0625 0.3925 7.0625 0.7225 7.0625 1.0625 C6.4547876 1.12195801 5.8470752 1.18141602 5.22094727 1.24267578 C-13.44946432 3.15244944 -29.09190812 6.74302012 -44.9375 17.0625 C-44.9375 14.0625 -44.9375 14.0625 -42.9375 11.0625 C-29.73419135 4.06922211 -14.94067533 -0.13221837 0 0 Z " fill="#A2DA5B" transform="translate(310.9375,168.9375)"/>
<path d="M0 0 C2.86724686 0.57344937 3.8614515 0.8614515 6 3 C6.65399459 6.0737746 7 8.85599094 7 12 C4.36 8.7 1.72 5.4 -1 2 C-0.67 1.34 -0.34 0.68 0 0 Z " fill="#9DD658" transform="translate(297,264)"/>
<path d="M0 0 C4.875 4.625 4.875 4.625 6 8 C5.0625 10.6875 5.0625 10.6875 4 13 C0.25474201 9.25474201 0.31090051 5.01729091 0 0 Z " fill="#5FA942" transform="translate(287,234)"/>
<path d="M0 0 C0.33 0 0.66 0 1 0 C1.48108275 1.41601714 1.95978141 2.83284437 2.4375 4.25 C2.83775391 5.43335938 2.83775391 5.43335938 3.24609375 6.640625 C3.91954708 8.74821988 4.49150595 10.84753973 5 13 C4.34 13 3.68 13 3 13 C2.67 13.66 2.34 14.32 2 15 C-0.35119399 11.47320901 -0.21443452 9.97120515 -0.125 5.8125 C-0.10695313 4.72582031 -0.08890625 3.63914063 -0.0703125 2.51953125 C-0.04710937 1.68808594 -0.02390625 0.85664063 0 0 Z " fill="#6DAC62" transform="translate(282,221)"/>
<path d="M0 0 C-1.26418246 0.69965443 -2.53665402 1.38434763 -3.8125 2.0625 C-4.52019531 2.44535156 -5.22789062 2.82820313 -5.95703125 3.22265625 C-8 4 -8 4 -11 3 C-10.34 3 -9.68 3 -9 3 C-9 2.01 -9 1.02 -9 0 C-5.5657338 -0.85856655 -3.38317487 -0.97591583 0 0 Z " fill="#489149" transform="translate(371,304)"/>
<path d="M0 0 C0.66 0 1.32 0 2 0 C0.55746343 3.36591866 -1.33264727 5.51047079 -4 8 C-4.66 7.67 -5.32 7.34 -6 7 C-5.04882866 5.8274869 -4.08882991 4.66212985 -3.125 3.5 C-2.59132812 2.8503125 -2.05765625 2.200625 -1.5078125 1.53125 C-0.76144531 0.77328125 -0.76144531 0.77328125 0 0 Z " fill="#69A93A" transform="translate(246,144)"/>
</svg>
